<?xml version="1.0" standalone="no"?>
<!DOCTYPE svg PUBLIC "-//W3C//DTD SVG 20010904//EN"
 "http://www.w3.org/TR/2001/REC-SVG-20010904/DTD/svg10.dtd">
<svg version="1.0" xmlns="http://www.w3.org/2000/svg"
 width="736.000000pt" height="736.000000pt" viewBox="0 0 736.000000 736.000000"
 preserveAspectRatio="xMidYMid meet">

<g transform="translate(0.000000,736.000000) scale(0.100000,-0.100000)"
fill="#000000" stroke="none">
<path d="M2476 6524 c-3 -9 -6 -49 -6 -89 0 -163 -86 -362 -237 -550 -165
-206 -259 -361 -302 -500 -27 -86 -38 -246 -22 -330 41 -221 249 -417 556
-524 50 -17 95 -33 101 -35 8 -3 3 -30 -16 -83 -36 -101 -75 -278 -93 -416
l-14 -109 45 -36 c42 -36 44 -38 38 -82 -9 -66 -43 -128 -87 -157 -56 -37
-159 -44 -216 -15 -42 22 -96 93 -108 145 -10 39 -22 34 -36 -15 -15 -56 -15
-171 1 -228 21 -78 101 -143 217 -176 8 -2 -1 -29 -27 -81 -63 -123 -84 -223
-77 -368 5 -123 27 -253 54 -315 l15 -35 15 49 c15 51 40 96 53 96 4 0 10 -48
13 -107 3 -60 13 -139 22 -178 21 -88 16 -257 -9 -328 -10 -27 -15 -51 -12
-55 12 -12 55 19 149 108 55 52 102 89 105 84 82 -122 190 -299 209 -343 17
-36 27 -81 31 -128 4 -65 2 -78 -27 -138 -17 -37 -31 -69 -31 -71 0 -2 14 -4
30 -4 39 0 87 20 126 53 18 15 36 27 42 27 5 0 12 -20 15 -45 4 -25 19 -70 33
-99 28 -58 119 -176 134 -176 6 0 10 24 10 53 0 139 44 262 64 181 10 -38 163
-185 310 -298 l129 -99 56 29 c119 62 269 202 354 332 41 62 71 79 81 45 11
-36 26 -150 26 -195 0 -27 4 -48 9 -48 13 0 96 110 123 165 14 28 31 73 37
102 l13 52 74 -40 c70 -36 112 -47 127 -33 3 4 -7 30 -23 60 -15 29 -31 75
-35 102 -12 87 -1 112 177 415 l70 118 91 -93 c80 -82 148 -131 162 -116 2 2
-3 24 -12 48 -28 78 -29 247 -3 374 17 82 21 126 16 177 -3 37 -2 70 3 73 12
8 69 -58 77 -89 10 -42 21 -29 43 53 53 199 54 366 1 524 -17 51 -40 108 -51
126 -10 18 -19 35 -19 37 0 2 15 7 33 10 41 9 106 42 134 68 31 28 63 118 63
175 -1 52 -23 178 -34 189 -10 10 -21 -6 -40 -59 -10 -26 -31 -59 -47 -72 -32
-27 -115 -56 -160 -56 -85 0 -153 69 -178 182 -10 42 -9 44 31 85 l41 42 -7
73 c-11 113 -33 220 -78 381 -22 81 -39 149 -37 151 2 1 49 17 104 34 169 53
322 152 427 277 76 90 103 142 124 245 45 225 -41 470 -266 760 -214 274 -277
409 -287 605 -3 55 -8 105 -12 112 -4 8 -27 -6 -69 -43 -50 -45 -71 -74 -109
-150 l-46 -94 -5 -129 c-6 -161 2 -187 117 -411 80 -157 85 -169 89 -242 6
-95 -14 -142 -99 -233 -85 -91 -133 -110 -276 -110 l-112 0 -48 46 c-67 65
-188 149 -291 202 -115 60 -339 157 -361 157 -23 0 -222 -88 -328 -145 -110
-60 -283 -176 -339 -227 -33 -30 -52 -40 -91 -44 -112 -14 -244 37 -323 123
-71 77 -95 133 -95 218 0 68 3 75 88 245 99 199 127 289 127 415 0 88 -17 160
-57 240 -30 59 -58 93 -123 152 -38 34 -49 40 -54 27z m69 -384 c19 -37 19
-119 0 -195 -8 -33 -59 -148 -112 -255 -97 -194 -97 -195 -101 -281 -5 -105
11 -162 69 -243 22 -31 43 -56 47 -56 4 0 5 25 4 55 l-4 55 63 -65 c62 -64
177 -135 220 -135 30 0 23 -18 -31 -77 -27 -30 -63 -83 -81 -119 -30 -64 -31
-65 -62 -58 -82 17 -171 86 -218 169 -27 48 -29 49 -29 20 0 -46 43 -128 86
-164 l39 -33 -45 5 c-37 5 -52 13 -87 51 -44 49 -95 171 -108 259 -10 64 -19
51 -25 -36 l-5 -72 -29 85 c-22 64 -30 111 -33 190 -9 187 12 241 189 495 118
169 182 290 201 380 13 62 29 70 52 25z m2582 -484 c50 -68 103 -167 141 -266
35 -91 38 -261 5 -365 -30 -96 -123 -226 -123 -172 0 8 -32 -17 -70 -54 -66
-64 -207 -149 -246 -149 -8 0 -31 35 -53 78 l-39 78 62 28 c68 29 160 111 192
172 22 40 34 44 34 9 0 -39 -30 -117 -61 -159 -16 -22 -27 -42 -24 -44 7 -7
64 38 89 71 32 43 72 174 81 266 7 69 8 73 20 50 7 -13 16 -49 20 -79 l8 -55
16 35 c12 27 16 69 16 180 0 140 -1 148 -32 223 -28 70 -82 168 -131 237 l-17
25 34 -24 c18 -13 53 -51 78 -85z m-1367 -278 c61 -24 84 -38 91 -56 5 -14 8
-433 7 -1015 l-3 -990 -82 -74 -83 -73 -95 71 -95 72 2 1014 3 1015 80 33 c44
18 83 34 87 34 4 1 43 -13 88 -31z m1181 -136 c-25 -83 -74 -156 -135 -204
-53 -42 -117 -78 -139 -78 -12 0 -63 58 -55 64 1 2 25 13 52 25 101 44 233
157 273 234 23 45 25 26 4 -41z m-1521 -652 c0 -385 -3 -700 -7 -700 -65 0
-327 66 -432 109 -137 56 -327 183 -365 243 -8 13 0 48 32 145 109 330 304
601 568 789 64 45 181 113 197 114 4 0 7 -315 7 -700z m599 665 c100 -53 227
-152 327 -257 178 -186 313 -425 382 -675 l20 -73 -56 -51 c-61 -56 -156 -121
-237 -162 -109 -55 -322 -117 -462 -136 l-63 -8 0 699 c0 502 3 698 11 698 6
0 41 -16 78 -35z m-1145 -1289 c139 -70 291 -120 435 -143 l111 -18 0 -127 0
-128 -28 0 c-45 0 -243 38 -316 61 -38 11 -102 36 -145 55 -84 39 -312 188
-355 233 l-28 29 16 106 c9 59 16 111 16 116 0 5 41 -22 92 -60 50 -38 141
-94 202 -124z m1916 71 c12 -103 12 -105 -11 -146 -17 -30 -49 -59 -118 -105
-116 -77 -169 -104 -284 -145 -91 -32 -410 -96 -433 -87 -11 4 -14 34 -14 129
l0 124 94 12 c275 36 537 141 680 272 33 31 64 55 67 53 3 -2 12 -50 19 -107z
m-2299 -654 c-19 -182 -19 -182 48 -60 57 103 109 182 116 175 2 -2 -6 -35
-17 -73 -18 -59 -21 -99 -23 -252 l-1 -183 -30 -31 c-16 -17 -65 -49 -108 -71
-51 -26 -99 -60 -132 -94 -32 -32 -56 -49 -60 -43 -9 15 4 184 22 294 25 149
88 317 162 428 14 22 28 34 30 28 2 -6 -1 -59 -7 -118z m2262 85 c33 -41 137
-222 137 -239 0 -4 5 -11 10 -14 8 -5 9 17 5 69 -16 234 -16 233 1 211 31 -39
86 -158 119 -258 38 -117 61 -245 71 -401 l7 -110 -59 60 c-40 40 -89 75 -153
109 -51 27 -101 60 -110 74 -13 20 -17 62 -22 206 -6 174 -14 223 -54 318 -13
31 13 18 48 -25z m-1828 -5 c23 -21 76 -57 118 -81 87 -50 172 -67 300 -60 73
4 77 4 77 -16 0 -15 38 -51 130 -124 72 -56 134 -103 139 -105 5 -1 62 45 125
102 83 74 116 111 116 127 0 22 2 22 93 17 161 -9 322 43 430 137 26 23 51 39
57 35 14 -9 40 -102 40 -145 0 -35 -19 -72 -50 -98 -36 -31 -90 -45 -190 -51
l-105 -6 78 -49 79 -49 -59 -53 c-32 -29 -63 -53 -69 -54 -6 0 -21 12 -35 26
-31 33 -80 58 -146 74 -38 8 -53 17 -53 29 0 20 -27 61 -41 61 -5 0 -9 -24 -9
-54 0 -50 -3 -57 -36 -84 -71 -59 -132 -85 -210 -90 -65 -4 -79 -1 -136 25
-35 17 -82 47 -105 68 -40 34 -43 40 -43 87 0 43 -2 49 -14 38 -8 -6 -20 -26
-26 -44 -9 -28 -15 -33 -45 -34 -48 -2 -96 -24 -143 -66 -22 -20 -43 -36 -47
-36 -6 0 -43 28 -128 101 -5 3 26 26 67 50 42 24 76 47 76 52 0 4 -35 7 -78 7
-94 0 -165 19 -211 58 -31 26 -35 35 -39 89 -3 46 1 71 16 107 12 25 24 46 27
46 4 0 26 -17 50 -37z m520 -514 c61 -11 147 -50 202 -92 l33 -24 -58 -16
c-147 -41 -268 -172 -325 -352 -9 -27 -37 -151 -62 -275 -26 -124 -49 -232
-52 -240 -15 -43 -73 270 -73 398 0 31 -4 52 -8 46 -5 -5 -24 -49 -43 -99
l-34 -90 -7 45 c-23 147 31 398 116 539 64 104 130 149 247 170 3 1 32 -4 64
-10z m672 -21 c63 -31 118 -96 164 -191 55 -115 79 -219 86 -368 8 -176 0
-187 -47 -64 l-38 100 -6 -60 c-21 -208 -66 -433 -79 -395 -3 8 -26 121 -52
250 -25 129 -55 262 -67 295 -57 166 -180 293 -317 328 l-54 14 44 30 c59 41
121 71 166 83 55 14 149 3 200 -22z m-1151 -50 c-23 -36 -55 -164 -63 -252 -6
-79 -7 -82 -64 -153 -38 -48 -64 -93 -79 -137 -12 -36 -24 -66 -27 -66 -9 0 5
245 17 305 18 92 83 206 156 274 66 62 89 73 60 29z m1515 -36 c120 -126 159
-235 159 -433 l0 -124 -24 56 c-24 60 -48 98 -108 170 -37 44 -38 48 -38 120
0 75 -26 194 -56 250 -24 47 -1 34 67 -39z m-796 -167 c17 0 68 4 115 8 l86 8
22 -40 c12 -21 22 -50 22 -64 0 -66 -293 -100 -422 -48 -37 14 -58 29 -59 39
-3 35 4 58 23 85 20 27 20 27 101 20 45 -4 96 -8 112 -8z m272 -299 c63 -93
79 -209 47 -349 -15 -64 -18 -69 -27 -47 -32 83 -80 170 -111 199 l-35 34 -20
-33 c-44 -73 -56 -159 -56 -402 l0 -226 -27 31 c-83 99 -159 282 -187 452
l-17 100 -49 -93 c-45 -84 -51 -92 -63 -75 -27 38 -44 124 -40 203 5 85 41
177 95 238 l28 34 60 -18 c82 -25 203 -23 275 3 66 25 79 19 127 -51z"/>
<path d="M3621 5124 c-76 -64 -9 -185 85 -154 69 23 86 99 35 151 -37 37 -79
38 -120 3z m77 -20 c6 -40 -48 -56 -62 -18 -10 26 5 45 33 42 17 -2 27 -10 29
-24z"/>
<path d="M3620 4402 c-61 -62 -25 -157 60 -157 114 0 122 163 8 182 -32 5 -41
1 -68 -25z m73 -14 c15 -23 1 -48 -28 -48 -14 0 -25 2 -25 4 0 2 -3 11 -6 19
-6 16 23 50 39 44 6 -2 15 -10 20 -19z"/>
<path d="M3653 3773 c-34 -7 -63 -50 -63 -93 0 -30 6 -44 31 -64 41 -35 83
-34 120 3 49 50 37 121 -26 147 -19 8 -36 13 -37 13 -2 -1 -13 -4 -25 -6z m42
-48 c0 -25 -4 -30 -24 -30 -32 0 -49 28 -31 50 7 9 23 15 34 13 16 -2 21 -10
21 -33z"/>
<path d="M3245 5103 c-263 -203 -454 -477 -516 -740 l-20 -85 22 -25 c30 -31
154 -111 247 -157 l72 -36 0 138 c0 329 81 649 229 900 17 28 30 52 29 52 -2
0 -30 -21 -63 -47z"/>
<path d="M4126 5080 c145 -171 195 -246 278 -420 53 -113 122 -304 146 -409
l13 -53 48 49 49 49 -19 76 c-43 169 -158 360 -316 526 -89 93 -246 237 -199
182z"/>
<path d="M2767 3912 c-35 -38 -9 -102 41 -102 26 0 63 46 55 68 -18 51 -66 67
-96 34z m53 -17 c0 -21 -30 -31 -40 -14 -11 17 -3 29 21 29 10 0 19 -7 19 -15z"/>
<path d="M3106 3779 c-28 -33 -32 -59 -14 -92 42 -80 158 -52 158 38 0 80 -93
115 -144 54z m84 -19 c0 -25 -30 -41 -53 -29 -39 22 -4 79 35 58 10 -5 18 -18
18 -29z"/>
<path d="M4582 3939 c-35 -13 -48 -53 -28 -84 30 -45 106 -25 106 28 0 42 -40
70 -78 56z m46 -32 c2 -12 -3 -17 -17 -17 -15 0 -21 6 -21 21 0 25 33 22 38
-4z"/>
<path d="M4205 3816 c-99 -43 -37 -190 65 -154 66 23 72 121 9 153 -34 18 -36
18 -74 1z m76 -22 c17 -21 0 -49 -32 -49 -24 0 -36 23 -25 51 7 19 40 18 57
-2z"/>
</g>
</svg>
